<svg width="372" height="334" viewBox="0 0 372 334" fill="none" xmlns="http://www.w3.org/2000/svg">
<g filter="url(#filter0_d_4_185)">
<path d="M15.168 101.288C12.416 101.288 10.24 100.488 8.64 98.888C7.04 97.288 6.24 95.112 6.24 92.36V42.728C6.944 42.6 8.064 42.44 9.6 42.248C11.136 41.992 12.608 41.864 14.016 41.864C15.488 41.864 16.768 41.992 17.856 42.248C19.008 42.44 19.968 42.824 20.736 43.4C21.504 43.976 22.08 44.776 22.464 45.8C22.848 46.824 23.04 48.168 23.04 49.832V87.752H45.024C45.472 88.456 45.888 89.416 46.272 90.632C46.656 91.784 46.848 93 46.848 94.28C46.848 96.84 46.304 98.664 45.216 99.752C44.128 100.776 42.688 101.288 40.896 101.288H15.168ZM72.1852 102.536C68.4092 102.536 64.8892 102.024 61.6252 101C58.4252 99.912 55.6092 98.312 53.1772 96.2C50.8092 94.088 48.9212 91.432 47.5132 88.232C46.1692 85.032 45.4972 81.288 45.4972 77C45.4972 72.776 46.1692 69.16 47.5132 66.152C48.9212 63.08 50.7452 60.584 52.9852 58.664C55.2252 56.68 57.7852 55.24 60.6652 54.344C63.5452 53.384 66.4892 52.904 69.4972 52.904C72.8892 52.904 75.9612 53.416 78.7132 54.44C81.5293 55.464 83.9293 56.872 85.9132 58.664C87.9613 60.456 89.5293 62.6 90.6173 65.096C91.7693 67.592 92.3453 70.312 92.3453 73.256C92.3453 75.432 91.7373 77.096 90.5212 78.248C89.3053 79.4 87.6093 80.136 85.4333 80.456L61.7212 84.008C62.4252 86.12 63.8652 87.72 66.0412 88.808C68.2172 89.832 70.7132 90.344 73.5292 90.344C76.1532 90.344 78.6172 90.024 80.9212 89.384C83.2892 88.68 85.2092 87.88 86.6812 86.984C87.7052 87.624 88.5692 88.52 89.2732 89.672C89.9773 90.824 90.3293 92.04 90.3293 93.32C90.3293 96.2 88.9853 98.344 86.2973 99.752C84.2493 100.84 81.9452 101.576 79.3852 101.96C76.8252 102.344 74.4252 102.536 72.1852 102.536ZM69.4972 64.808C67.9612 64.808 66.6172 65.064 65.4652 65.576C64.3772 66.088 63.4812 66.76 62.7772 67.592C62.0732 68.36 61.5292 69.256 61.1452 70.28C60.8252 71.24 60.6332 72.232 60.5692 73.256L76.9853 70.568C76.7932 69.288 76.0892 68.008 74.8732 66.728C73.6572 65.448 71.8652 64.808 69.4972 64.808ZM114.409 90.632C115.497 90.632 116.681 90.536 117.961 90.344C119.305 90.088 120.297 89.768 120.937 89.384V81.704L114.025 82.28C112.233 82.408 110.761 82.792 109.609 83.432C108.457 84.072 107.881 85.032 107.881 86.312C107.881 87.592 108.361 88.648 109.321 89.48C110.345 90.248 112.041 90.632 114.409 90.632ZM113.641 52.904C117.097 52.904 120.233 53.256 123.049 53.96C125.929 54.664 128.361 55.752 130.345 57.224C132.393 58.632 133.961 60.456 135.049 62.696C136.137 64.872 136.681 67.464 136.681 70.472V91.976C136.681 93.64 136.201 95.016 135.241 96.104C134.345 97.128 133.257 98.024 131.977 98.792C127.817 101.288 121.961 102.536 114.409 102.536C111.017 102.536 107.945 102.216 105.193 101.576C102.505 100.936 100.169 99.976 98.1847 98.696C96.2647 97.416 94.7607 95.784 93.6727 93.8C92.6487 91.816 92.1367 89.512 92.1367 86.888C92.1367 82.472 93.4487 79.08 96.0727 76.712C98.6967 74.344 102.761 72.872 108.265 72.296L120.841 70.952V70.28C120.841 68.424 120.009 67.112 118.345 66.344C116.745 65.512 114.409 65.096 111.337 65.096C108.905 65.096 106.537 65.352 104.233 65.864C101.929 66.376 99.8487 67.016 97.9927 67.784C97.1607 67.208 96.4567 66.344 95.8807 65.192C95.3047 63.976 95.0167 62.728 95.0167 61.448C95.0167 59.784 95.4007 58.472 96.1687 57.512C97.0007 56.488 98.2487 55.624 99.9127 54.92C101.769 54.216 103.945 53.704 106.441 53.384C109.001 53.064 111.401 52.904 113.641 52.904ZM180.26 87.08C180.26 91.944 178.436 95.752 174.788 98.504C171.14 101.256 165.764 102.632 158.66 102.632C155.972 102.632 153.476 102.44 151.172 102.056C148.868 101.672 146.884 101.096 145.22 100.328C143.62 99.496 142.34 98.472 141.38 97.256C140.484 96.04 140.036 94.6 140.036 92.936C140.036 91.4 140.356 90.12 140.996 89.096C141.636 88.008 142.404 87.112 143.3 86.408C145.156 87.432 147.268 88.36 149.636 89.192C152.068 89.96 154.852 90.344 157.988 90.344C159.972 90.344 161.476 90.056 162.5 89.48C163.588 88.904 164.132 88.136 164.132 87.176C164.132 86.28 163.748 85.576 162.98 85.064C162.212 84.552 160.932 84.136 159.14 83.816L156.26 83.24C150.692 82.152 146.532 80.456 143.78 78.152C141.092 75.784 139.748 72.424 139.748 68.072C139.748 65.704 140.26 63.56 141.284 61.64C142.308 59.72 143.748 58.12 145.604 56.84C147.46 55.56 149.668 54.568 152.228 53.864C154.852 53.16 157.732 52.808 160.868 52.808C163.236 52.808 165.444 53 167.492 53.384C169.604 53.704 171.428 54.216 172.964 54.92C174.5 55.624 175.716 56.552 176.612 57.704C177.508 58.792 177.956 60.104 177.956 61.64C177.956 63.112 177.668 64.392 177.092 65.48C176.58 66.504 175.908 67.368 175.076 68.072C174.564 67.752 173.796 67.432 172.772 67.112C171.748 66.728 170.628 66.408 169.412 66.152C168.196 65.832 166.948 65.576 165.668 65.384C164.452 65.192 163.332 65.096 162.308 65.096C160.196 65.096 158.564 65.352 157.412 65.864C156.26 66.312 155.684 67.048 155.684 68.072C155.684 68.776 156.004 69.352 156.644 69.8C157.284 70.248 158.5 70.664 160.292 71.048L163.268 71.72C169.412 73.128 173.764 75.08 176.324 77.576C178.948 80.008 180.26 83.176 180.26 87.08ZM207.53 102.536C203.754 102.536 200.234 102.024 196.97 101C193.77 99.912 190.954 98.312 188.522 96.2C186.154 94.088 184.266 91.432 182.858 88.232C181.514 85.032 180.842 81.288 180.842 77C180.842 72.776 181.514 69.16 182.858 66.152C184.266 63.08 186.09 60.584 188.33 58.664C190.57 56.68 193.13 55.24 196.01 54.344C198.89 53.384 201.834 52.904 204.842 52.904C208.234 52.904 211.306 53.416 214.058 54.44C216.874 55.464 219.274 56.872 221.258 58.664C223.306 60.456 224.874 62.6 225.962 65.096C227.114 67.592 227.69 70.312 227.69 73.256C227.69 75.432 227.082 77.096 225.866 78.248C224.65 79.4 222.954 80.136 220.778 80.456L197.066 84.008C197.77 86.12 199.21 87.72 201.386 88.808C203.562 89.832 206.058 90.344 208.874 90.344C211.498 90.344 213.962 90.024 216.266 89.384C218.634 88.68 220.554 87.88 222.026 86.984C223.05 87.624 223.914 88.52 224.618 89.672C225.322 90.824 225.674 92.04 225.674 93.32C225.674 96.2 224.33 98.344 221.642 99.752C219.594 100.84 217.29 101.576 214.73 101.96C212.17 102.344 209.77 102.536 207.53 102.536ZM204.842 64.808C203.306 64.808 201.962 65.064 200.81 65.576C199.722 66.088 198.826 66.76 198.122 67.592C197.418 68.36 196.874 69.256 196.49 70.28C196.17 71.24 195.978 72.232 195.914 73.256L212.33 70.568C212.138 69.288 211.434 68.008 210.218 66.728C209.002 65.448 207.21 64.808 204.842 64.808Z" fill="#EEDEFF"/>
</g>
<g filter="url(#filter1_d_4_185)">
<path d="M108.112 159.192C106.277 159.192 104.827 158.659 103.76 157.592C102.693 156.525 102.16 155.075 102.16 153.24V120.152C102.629 120.067 103.376 119.96 104.4 119.832C105.424 119.661 106.405 119.576 107.344 119.576C108.325 119.576 109.179 119.661 109.904 119.832C110.672 119.96 111.312 120.216 111.824 120.6C112.336 120.984 112.72 121.517 112.976 122.2C113.232 122.883 113.36 123.779 113.36 124.888V150.168H128.016C128.315 150.637 128.592 151.277 128.848 152.088C129.104 152.856 129.232 153.667 129.232 154.52C129.232 156.227 128.869 157.443 128.144 158.168C127.419 158.851 126.459 159.192 125.264 159.192H108.112ZM130.044 119.256C130.044 117.635 130.578 116.269 131.645 115.16C132.754 114.051 134.205 113.496 135.997 113.496C137.789 113.496 139.218 114.051 140.285 115.16C141.394 116.269 141.949 117.635 141.949 119.256C141.949 120.877 141.394 122.243 140.285 123.352C139.218 124.461 137.789 125.016 135.997 125.016C134.205 125.016 132.754 124.461 131.645 123.352C130.578 122.243 130.044 120.877 130.044 119.256ZM141.437 158.936C140.967 159.021 140.263 159.128 139.325 159.256C138.429 159.427 137.511 159.512 136.573 159.512C135.634 159.512 134.781 159.448 134.013 159.32C133.287 159.192 132.668 158.936 132.156 158.552C131.645 158.168 131.239 157.656 130.941 157.016C130.684 156.333 130.556 155.459 130.556 154.392V128.344C131.026 128.259 131.709 128.152 132.605 128.024C133.543 127.853 134.482 127.768 135.42 127.768C136.359 127.768 137.191 127.832 137.917 127.96C138.685 128.088 139.325 128.344 139.837 128.728C140.349 129.112 140.733 129.645 140.989 130.328C141.287 130.968 141.437 131.821 141.437 132.888V158.936ZM159.435 126.936C161.184 126.936 162.891 127.192 164.555 127.704C166.262 128.173 167.734 128.899 168.971 129.88C170.251 129.027 171.68 128.323 173.259 127.768C174.88 127.213 176.822 126.936 179.083 126.936C180.704 126.936 182.283 127.149 183.819 127.576C185.398 128.003 186.784 128.685 187.979 129.624C189.216 130.52 190.198 131.736 190.923 133.272C191.648 134.765 192.011 136.6 192.011 138.776V158.936C191.584 159.064 190.902 159.192 189.963 159.32C189.067 159.448 188.128 159.512 187.147 159.512C186.208 159.512 185.355 159.448 184.587 159.32C183.862 159.192 183.243 158.936 182.731 158.552C182.219 158.168 181.814 157.656 181.515 157.016C181.259 156.333 181.131 155.459 181.131 154.392V139.096C181.131 137.816 180.768 136.899 180.043 136.344C179.318 135.747 178.336 135.448 177.099 135.448C176.502 135.448 175.862 135.597 175.179 135.896C174.496 136.152 173.984 136.429 173.643 136.728C173.686 136.899 173.707 137.069 173.707 137.24C173.707 137.368 173.707 137.496 173.707 137.624V158.936C173.238 159.064 172.534 159.192 171.595 159.32C170.699 159.448 169.782 159.512 168.843 159.512C167.904 159.512 167.051 159.448 166.283 159.32C165.558 159.192 164.939 158.936 164.427 158.552C163.915 158.168 163.51 157.656 163.211 157.016C162.955 156.333 162.827 155.459 162.827 154.392V139.096C162.827 137.816 162.422 136.899 161.611 136.344C160.843 135.747 159.904 135.448 158.795 135.448C158.027 135.448 157.366 135.576 156.811 135.832C156.256 136.045 155.787 136.259 155.403 136.472V158.936C154.976 159.064 154.294 159.192 153.355 159.32C152.459 159.448 151.52 159.512 150.539 159.512C149.6 159.512 148.747 159.448 147.979 159.32C147.254 159.192 146.635 158.936 146.123 158.552C145.611 158.168 145.206 157.656 144.907 157.016C144.651 156.333 144.523 155.459 144.523 154.392V135.064C144.523 133.912 144.758 132.995 145.227 132.312C145.739 131.629 146.422 130.989 147.275 130.392C148.726 129.368 150.518 128.536 152.651 127.896C154.827 127.256 157.088 126.936 159.435 126.936ZM194.552 119.256C194.552 117.635 195.085 116.269 196.152 115.16C197.261 114.051 198.712 113.496 200.504 113.496C202.296 113.496 203.725 114.051 204.792 115.16C205.901 116.269 206.456 117.635 206.456 119.256C206.456 120.877 205.901 122.243 204.792 123.352C203.725 124.461 202.296 125.016 200.504 125.016C198.712 125.016 197.261 124.461 196.152 123.352C195.085 122.243 194.552 120.877 194.552 119.256ZM205.944 158.936C205.475 159.021 204.771 159.128 203.832 159.256C202.936 159.427 202.019 159.512 201.08 159.512C200.141 159.512 199.288 159.448 198.52 159.32C197.795 159.192 197.176 158.936 196.664 158.552C196.152 158.168 195.747 157.656 195.448 157.016C195.192 156.333 195.064 155.459 195.064 154.392V128.344C195.533 128.259 196.216 128.152 197.112 128.024C198.051 127.853 198.989 127.768 199.928 127.768C200.867 127.768 201.699 127.832 202.424 127.96C203.192 128.088 203.832 128.344 204.344 128.728C204.856 129.112 205.24 129.645 205.496 130.328C205.795 130.968 205.944 131.821 205.944 132.888V158.936ZM219.911 148.312C219.911 149.421 220.252 150.211 220.934 150.68C221.66 151.149 222.663 151.384 223.943 151.384C224.583 151.384 225.244 151.341 225.927 151.256C226.609 151.128 227.207 150.979 227.719 150.808C228.103 151.277 228.423 151.811 228.679 152.408C228.977 152.963 229.127 153.645 229.127 154.456C229.127 156.077 228.508 157.4 227.271 158.424C226.076 159.448 223.943 159.96 220.871 159.96C217.116 159.96 214.214 159.107 212.166 157.4C210.161 155.693 209.158 152.92 209.158 149.08V121.688C209.628 121.56 210.289 121.432 211.142 121.304C212.038 121.133 212.977 121.048 213.958 121.048C215.836 121.048 217.286 121.389 218.311 122.072C219.377 122.712 219.911 124.099 219.911 126.232V130.328H228.295C228.551 130.797 228.785 131.395 228.999 132.12C229.255 132.803 229.382 133.571 229.382 134.424C229.382 135.917 229.041 137.005 228.358 137.688C227.719 138.328 226.844 138.648 225.735 138.648H219.911V148.312Z" fill="#EEDEFF"/>
</g>
<g filter="url(#filter2_d_4_185)">
<mask id="mask0_4_185" style="mask-type:luminance" maskUnits="userSpaceOnUse" x="100" y="63" width="268" height="263">
<path d="M100.866 63.3718H367.86V325.176H100.866V63.3718Z" fill="white"/>
</mask>
<g mask="url(#mask0_4_185)">
<path d="M209.808 216.368C207.735 218.678 205.514 220.83 203.142 222.829L204.965 224.985C207.439 222.901 209.754 220.654 211.915 218.248L209.808 216.368ZM221.973 204.857L221.493 207.638C224.561 208.164 227.581 208.881 230.556 209.791L231.386 207.095C228.295 206.148 225.158 205.4 221.973 204.857ZM211.053 277.142L209.742 279.642C212.671 281.175 215.745 282.312 218.965 283.057L219.604 280.307C216.618 279.616 213.766 278.561 211.05 277.139L211.053 277.142ZM200.691 268.705C199.678 267.462 198.748 266.16 197.898 264.803L195.506 266.305C196.419 267.761 197.417 269.154 198.501 270.488C199.493 271.708 200.565 272.857 201.712 273.934L203.642 271.878C202.587 270.886 201.603 269.828 200.688 268.702L200.691 268.705ZM193.138 204.655C189.978 205.113 186.796 205.733 183.682 206.492L184.35 209.233C187.376 208.494 190.473 207.894 193.544 207.448L193.138 204.655ZM192.216 247.65L189.398 247.763C189.526 250.917 190.155 254.179 191.272 257.461L193.942 256.551C192.913 253.525 192.333 250.53 192.213 247.647L192.216 247.65ZM303.868 133.231C301.814 135.563 299.61 137.744 297.256 139.772L299.099 141.908C301.55 139.795 303.845 137.525 305.986 135.094L303.868 133.231ZM272.626 151.733C271.244 152 269.845 152.245 268.491 152.481C266.788 152.776 265.022 153.081 263.273 153.445L263.847 156.209C265.554 155.853 267.291 155.552 268.975 155.262C270.343 155.026 271.753 154.778 273.166 154.503L272.626 151.733ZM289.808 145.28C287.195 146.91 284.448 148.258 281.558 149.324L282.539 151.972C285.602 150.837 288.517 149.407 291.29 147.678L289.808 145.28ZM174.44 209.216C171.386 210.277 168.38 211.491 165.502 212.825L166.688 215.387C169.48 214.093 172.401 212.913 175.367 211.884L174.44 209.216ZM237.728 279.997C234.764 280.791 231.75 281.214 228.684 281.266L228.733 284.087C232.032 284.033 235.273 283.578 238.461 282.722L237.728 279.997ZM240.429 210.601L239.215 213.149C242.01 214.477 244.681 216.027 247.223 217.796L248.838 215.484C246.171 213.624 243.367 211.995 240.429 210.601ZM253.65 271.19C251.682 272.922 249.583 274.478 247.348 275.854C246.964 276.093 246.569 276.323 246.176 276.545L247.564 279.005C247.988 278.763 248.412 278.513 248.827 278.26C251.198 276.798 253.428 275.149 255.515 273.306L253.65 271.19ZM268.707 246.404C268.619 243.486 268.107 240.643 267.177 237.876L264.499 238.771C265.343 241.274 265.807 243.845 265.886 246.487C265.892 246.734 265.898 246.984 265.898 247.232C265.898 247.368 265.898 247.505 265.898 247.641L268.719 247.687C268.719 247.536 268.719 247.385 268.719 247.232C268.719 246.959 268.716 246.677 268.707 246.404ZM264.211 256.46C263.202 259.184 261.74 261.866 259.863 264.433L262.144 266.1C264.172 263.322 265.758 260.404 266.859 257.438L264.211 256.46ZM156.968 217.344C154.215 219.022 151.562 220.844 149.005 222.812L150.726 225.056C153.197 223.151 155.768 221.385 158.432 219.761L156.968 217.344ZM219.849 200.842C218.45 203.859 217 206.532 215.41 209L217.784 210.527C219.525 207.8 221.066 204.968 222.414 202.027L219.849 200.842ZM207.189 203.62C205.716 203.62 204.214 203.657 202.727 203.728L202.86 206.546C204.302 206.478 205.758 206.444 207.189 206.444C208.869 206.444 210.558 206.489 212.213 206.586L212.373 203.768C210.672 203.671 208.923 203.62 207.189 203.62ZM227.149 183.316C225.858 186.125 224.72 189.017 223.617 191.815L223.483 192.154L226.108 193.189L226.245 192.848C227.382 189.961 228.457 187.231 229.714 184.49L227.149 183.316ZM237.978 167.26C235.68 169.575 233.627 172.094 231.821 174.81L234.173 176.374C235.876 173.809 237.813 171.431 239.983 169.245L237.978 167.26ZM256.32 221.675L254.366 223.72C256.758 226.006 258.729 228.284 260.384 230.687L262.707 229.086C260.964 226.555 258.811 224.064 256.32 221.675ZM253.943 156.226C250.917 157.491 248.07 159.075 245.4 160.975L247.027 163.284C249.526 161.501 252.194 160.02 255.026 158.834L253.943 156.226ZM119.539 260.347C118.245 263.293 117.104 266.299 116.117 269.359L118.802 270.226C119.76 267.254 120.867 264.34 122.121 261.482L119.539 260.347ZM141.666 229.066C139.331 231.261 137.082 233.602 134.98 236.013L137.11 237.867C139.149 235.527 141.333 233.257 143.599 231.122L141.666 229.066ZM195.944 229.322C193.595 231.972 191.918 234.773 190.817 237.884L193.479 238.826C194.457 236.067 195.953 233.565 198.057 231.193L195.944 229.322ZM129.022 243.589C127.163 246.216 125.442 248.929 123.855 251.728L126.312 253.118C127.851 250.402 129.523 247.769 131.326 245.221L129.022 243.589ZM114.423 311.259C113.97 311.259 113.521 311.301 113.078 311.389C112.631 311.48 112.202 311.611 111.781 311.785C111.363 311.958 110.965 312.169 110.589 312.422C110.211 312.672 109.861 312.959 109.543 313.281C109.221 313.599 108.934 313.949 108.684 314.327C108.431 314.702 108.218 315.101 108.044 315.519C107.871 315.939 107.74 316.369 107.652 316.815C107.563 317.259 107.518 317.708 107.518 318.16C107.518 318.615 107.563 319.065 107.652 319.508C107.74 319.952 107.871 320.384 108.044 320.805C108.218 321.223 108.431 321.621 108.681 321.997C108.934 322.375 109.221 322.725 109.54 323.043C109.861 323.365 110.211 323.652 110.586 323.902C110.965 324.155 111.363 324.368 111.781 324.542C112.199 324.715 112.631 324.846 113.075 324.934C113.521 325.022 113.97 325.068 114.423 325.068C114.875 325.068 115.324 325.022 115.771 324.934C116.214 324.846 116.646 324.715 117.064 324.542C117.482 324.368 117.881 324.155 118.259 323.902C118.634 323.652 118.984 323.365 119.305 323.043C119.627 322.725 119.911 322.375 120.164 322C120.414 321.621 120.628 321.223 120.801 320.805C120.975 320.387 121.105 319.955 121.194 319.508C121.282 319.065 121.327 318.615 121.327 318.163C121.327 317.708 121.282 317.259 121.194 316.815C121.105 316.372 120.975 315.939 120.801 315.521C120.628 315.101 120.414 314.702 120.164 314.327C119.911 313.949 119.627 313.602 119.305 313.281C118.984 312.959 118.637 312.675 118.259 312.422C117.883 312.172 117.485 311.958 117.064 311.785C116.646 311.611 116.214 311.48 115.771 311.392C115.327 311.301 114.878 311.259 114.423 311.259ZM114.423 269.717C113.979 269.717 113.538 269.737 113.095 269.783C112.654 269.825 112.216 269.891 111.778 269.976C111.343 270.064 110.913 270.172 110.49 270.3C110.063 270.428 109.645 270.579 109.236 270.749C108.826 270.917 108.425 271.108 108.033 271.318C107.64 271.526 107.262 271.753 106.892 272.001C106.523 272.248 106.167 272.513 105.823 272.794C105.479 273.076 105.152 273.371 104.836 273.687C104.524 274 104.225 274.33 103.943 274.671C103.662 275.015 103.397 275.371 103.153 275.74C102.905 276.11 102.678 276.491 102.467 276.881C102.26 277.273 102.069 277.674 101.899 278.083C101.728 278.496 101.58 278.911 101.452 279.338C101.321 279.761 101.213 280.194 101.128 280.629C101.04 281.064 100.977 281.502 100.932 281.942C100.889 282.386 100.866 282.83 100.866 283.273C100.866 292.348 107.552 301.058 111.533 305.438C112.219 306.194 112.824 306.82 113.302 307.297C113.351 307.348 113.399 307.397 113.447 307.439C113.572 307.567 113.72 307.664 113.888 307.732C114.053 307.798 114.226 307.829 114.406 307.826C114.588 307.823 114.758 307.784 114.923 307.71C115.085 307.636 115.23 307.533 115.35 307.4C118.412 304.092 127.979 292.973 127.979 283.273C127.979 282.83 127.956 282.386 127.913 281.942C127.871 281.502 127.805 281.064 127.717 280.629C127.632 280.194 127.524 279.761 127.396 279.338C127.265 278.914 127.117 278.496 126.946 278.083C126.776 277.674 126.588 277.273 126.378 276.883C126.17 276.491 125.94 276.11 125.695 275.74C125.448 275.371 125.183 275.015 124.902 274.674C124.62 274.33 124.322 274 124.009 273.687C123.693 273.374 123.366 273.076 123.022 272.794C122.681 272.513 122.323 272.248 121.953 272.001C121.586 271.753 121.205 271.526 120.813 271.318C120.423 271.108 120.022 270.917 119.61 270.749C119.2 270.579 118.782 270.428 118.358 270.3C117.932 270.172 117.502 270.064 117.067 269.976C116.632 269.891 116.194 269.825 115.751 269.783C115.31 269.74 114.866 269.717 114.423 269.717ZM114.423 289.171C113.97 289.171 113.521 289.129 113.078 289.04C112.631 288.952 112.202 288.821 111.781 288.648C111.363 288.475 110.965 288.261 110.586 288.008C110.211 287.758 109.861 287.471 109.54 287.149C109.221 286.828 108.934 286.481 108.681 286.103C108.431 285.727 108.218 285.329 108.044 284.908C107.871 284.49 107.74 284.058 107.652 283.615C107.563 283.171 107.518 282.722 107.518 282.267C107.518 281.814 107.563 281.365 107.652 280.922C107.74 280.475 107.871 280.043 108.044 279.625C108.218 279.207 108.431 278.809 108.684 278.43C108.934 278.055 109.221 277.705 109.543 277.384C109.861 277.065 110.211 276.778 110.589 276.528C110.965 276.275 111.363 276.062 111.781 275.888C112.202 275.715 112.634 275.584 113.078 275.496C113.521 275.408 113.97 275.365 114.425 275.365C114.878 275.365 115.327 275.408 115.771 275.496C116.217 275.584 116.646 275.717 117.067 275.891C117.485 276.064 117.883 276.275 118.262 276.528C118.637 276.781 118.987 277.065 119.305 277.387C119.627 277.708 119.914 278.058 120.164 278.433C120.417 278.811 120.628 279.21 120.801 279.628C120.975 280.046 121.105 280.478 121.194 280.924C121.285 281.368 121.327 281.817 121.327 282.269C121.327 282.724 121.282 283.174 121.194 283.617C121.105 284.061 120.975 284.493 120.801 284.911C120.628 285.329 120.414 285.727 120.164 286.106C119.911 286.481 119.624 286.831 119.305 287.152C118.984 287.471 118.634 287.758 118.259 288.008C117.881 288.261 117.482 288.475 117.064 288.648C116.646 288.821 116.214 288.952 115.771 289.04C115.324 289.129 114.875 289.171 114.423 289.171ZM354.944 100.23L355.905 99.058C356.284 98.5974 356.687 98.1623 357.117 97.7471L362.184 92.8672C365.475 89.6936 368.122 84.2535 367.789 79.6921C367.499 75.7706 364.505 72.6197 361.294 69.8499L359.904 68.6498C356.69 65.88 353.136 63.3804 349.214 63.6676C344.653 64.0031 339.659 67.4185 337.003 71.141L332.919 76.8711C332.572 77.3545 332.203 77.8181 331.802 78.2617L330.778 79.3907C328.369 77.8465 327.462 79.6239 327.462 79.6239L329.586 80.7045L309.404 102.928C306.08 106.785 300.003 120.147 303.859 123.472L315.291 133.334C319.144 136.658 331.472 128.687 334.796 124.831L353.818 101.606L355.2 103.548C355.2 103.548 356.824 102.388 354.944 100.23ZM343.521 110.413C343.376 110.339 343.228 110.265 343.077 110.194C342.471 109.901 341.852 109.634 341.226 109.381L345.844 104.026C346.632 103.11 352.325 99.4732 352.325 99.4732C352.325 99.4732 348.207 104.899 343.521 110.413ZM322.759 129.455C318.069 128.616 313.312 124.069 313.312 124.069C313.312 124.069 308.116 120.031 306.595 115.518C306.498 115.228 306.552 114.972 306.76 114.75L313.701 107.245C313.778 107.16 313.872 107.097 313.977 107.055C314.085 107.012 314.193 106.992 314.31 106.998C314.424 107.006 314.532 107.038 314.634 107.092C314.734 107.146 314.819 107.22 314.887 107.313C315.954 108.769 318.811 112.324 321.47 114.608C324.129 116.894 328.062 119.206 329.658 120.048C329.76 120.102 329.845 120.173 329.913 120.264C329.982 120.358 330.027 120.46 330.053 120.571C330.076 120.685 330.073 120.796 330.047 120.907C330.019 121.02 329.97 121.12 329.899 121.208L323.492 129.176C323.302 129.412 323.057 129.506 322.759 129.452V129.455ZM331.913 81.8647C331.913 81.8647 329.148 88.03 328.361 88.9457L323.743 94.2976C323.398 93.7175 323.043 93.143 322.665 92.5857C322.571 92.452 322.477 92.3155 322.383 92.1819C327.149 86.7332 331.913 81.8647 331.913 81.8647ZM346.544 101.862C346.544 101.862 343.009 97.0077 339.366 93.8625C335.723 90.7202 330.397 87.9333 330.397 87.9333L332.837 82.9909L335.513 77.5593C335.513 77.5593 335.959 77.4512 336.792 77.4768C338.777 77.5365 342.969 78.3499 348.571 83.1814C356.522 90.0405 356.05 95.273 356.05 95.273L346.544 101.862ZM366.746 76.9706C367.03 77.7185 367.201 78.492 367.263 79.2883C367.334 80.3888 367.252 81.478 367.024 82.5558C366.638 81.9927 366.385 81.3756 366.259 80.7045C366.259 80.6675 366.259 80.6277 366.254 80.5907C366.234 80.312 366.197 80.0362 366.149 79.7632C366.092 78.4266 366.433 77.2493 366.746 76.9706ZM349.683 64.1254C350.482 64.0685 351.273 64.1254 352.055 64.296C351.825 64.6515 350.71 65.1577 349.385 65.297C349.106 65.2857 348.827 65.2914 348.551 65.3141L348.429 65.3226C347.749 65.2999 347.101 65.1406 346.49 64.842C347.522 64.4553 348.586 64.2164 349.683 64.1254ZM321.431 93.271C321.496 93.1971 321.559 93.1231 321.624 93.0492C321.732 93.1715 321.837 93.2938 321.942 93.4189C322.366 93.9194 322.77 94.4398 323.157 94.9744L318.2 100.719C316.832 102.306 311.682 105.314 311.682 105.314C311.682 105.314 316.369 99.1462 321.431 93.271ZM342.58 111.514C337.518 117.38 332.097 122.923 332.097 122.923C332.097 122.923 334.318 117.389 335.686 115.805L340.643 110.061C341.226 110.362 341.8 110.686 342.358 111.033C342.497 111.118 342.634 111.207 342.77 111.295L342.58 111.514Z" fill="#EEDEFF"/>
</g>
</g>
<defs>
<filter id="filter0_d_4_185" x="2.23999" y="41.864" width="229.45" height="68.768" filterUnits="userSpaceOnUse" color-interpolation-filters="sRGB">
<feFlood flood-opacity="0" result="BackgroundImageFix"/>
<feColorMatrix in="SourceAlpha" type="matrix" values="0 0 0 0 0 0 0 0 0 0 0 0 0 0 0 0 0 0 127 0" result="hardAlpha"/>
<feOffset dy="4"/>
<feGaussianBlur stdDeviation="2"/>
<feComposite in2="hardAlpha" operator="out"/>
<feColorMatrix type="matrix" values="0 0 0 0 0 0 0 0 0 0 0 0 0 0 0 0 0 0 0.25 0"/>
<feBlend mode="normal" in2="BackgroundImageFix" result="effect1_dropShadow_4_185"/>
<feBlend mode="normal" in="SourceGraphic" in2="effect1_dropShadow_4_185" result="shape"/>
</filter>
<filter id="filter1_d_4_185" x="98.1599" y="113.496" width="135.223" height="54.4641" filterUnits="userSpaceOnUse" color-interpolation-filters="sRGB">
<feFlood flood-opacity="0" result="BackgroundImageFix"/>
<feColorMatrix in="SourceAlpha" type="matrix" values="0 0 0 0 0 0 0 0 0 0 0 0 0 0 0 0 0 0 127 0" result="hardAlpha"/>
<feOffset dy="4"/>
<feGaussianBlur stdDeviation="2"/>
<feComposite in2="hardAlpha" operator="out"/>
<feColorMatrix type="matrix" values="0 0 0 0 0 0 0 0 0 0 0 0 0 0 0 0 0 0 0.25 0"/>
<feBlend mode="normal" in2="BackgroundImageFix" result="effect1_dropShadow_4_185"/>
<feBlend mode="normal" in="SourceGraphic" in2="effect1_dropShadow_4_185" result="shape"/>
</filter>
<filter id="filter2_d_4_185" x="94" y="58" width="281" height="281" filterUnits="userSpaceOnUse" color-interpolation-filters="sRGB">
<feFlood flood-opacity="0" result="BackgroundImageFix"/>
<feColorMatrix in="SourceAlpha" type="matrix" values="0 0 0 0 0 0 0 0 0 0 0 0 0 0 0 0 0 0 127 0" result="hardAlpha"/>
<feOffset dy="4"/>
<feGaussianBlur stdDeviation="2"/>
<feComposite in2="hardAlpha" operator="out"/>
<feColorMatrix type="matrix" values="0 0 0 0 0 0 0 0 0 0 0 0 0 0 0 0 0 0 0.25 0"/>
<feBlend mode="normal" in2="BackgroundImageFix" result="effect1_dropShadow_4_185"/>
<feBlend mode="normal" in="SourceGraphic" in2="effect1_dropShadow_4_185" result="shape"/>
</filter>
</defs>
</svg>
